# xmcd
#
# Track frame offsets:
#	150
#	17482
#	34077
#	53377
#	81082
#	105945
#	127057
#	158625
#	177377
#	202975
#	231580
#
# Disc length: 3568 seconds
#
# Revision: 0
# Processed by: cddbd v1.4PL0 Copyright (c) Steve Scherf et al.
# Submitted via: dBpowerAMP V4.0
#
DISCID=800dee0b
DTITLE=Jason Ricci - Down At The Juke
DYEAR=1997
DGENRE=Blues
TTITLE0=Down At The Juke
TTITLE1=Shakey's Jump
TTITLE2=Mississippi March
TTITLE3=Delta Dip
TTITLE4=Things Ain't What They Used To Be
TTITLE5=Delta Nova
TTITLE6=Can't Close Our Eyes
TTITLE7=Snowflakes and Horses
TTITLE8=No Progression
TTITLE9=My Blood Is Yours
TTITLE10=Soul Desire
EXTD=
EXTT0=
EXTT1=
EXTT2=
EXTT3=
EXTT4=
EXTT5=
EXTT6=
EXTT7=
EXTT8=
EXTT9=
EXTT10=
PLAYORDER=
